<?xml version="1.0" encoding="UTF-8" standalone="no"?>
<!-- Created with Inkscape (http://www.inkscape.org/) -->
<svg xmlns:dc="http://purl.org/dc/elements/1.1/" xmlns:cc="http://creativecommons.org/ns#" xmlns:rdf="http://www.w3.org/1999/02/22-rdf-syntax-ns#" xmlns:svg="http://www.w3.org/2000/svg" xmlns="http://www.w3.org/2000/svg" xmlns:sodipodi="http://sodipodi.sourceforge.net/DTD/sodipodi-0.dtd" xmlns:inkscape="http://www.inkscape.org/namespaces/inkscape" id="svg2" version="1.1" inkscape:version="0.91 r13725" xml:space="preserve" width="800" height="512" viewBox="0 0 800 512" sodipodi:docname="Logo Re패gion Re패union.svg"><metadata id="metadata8"><rdf:RDF><cc:Work rdf:about=""><dc:format>image/svg+xml</dc:format><dc:type rdf:resource="http://purl.org/dc/dcmitype/StillImage"/><dc:title/></cc:Work></rdf:RDF></metadata><defs id="defs6"/><sodipodi:namedview pagecolor="#ffffff" bordercolor="#666666" borderopacity="1" objecttolerance="10" gridtolerance="10" guidetolerance="10" inkscape:pageopacity="0" inkscape:pageshadow="2" inkscape:window-width="1440" inkscape:window-height="790" id="namedview4" showgrid="false" inkscape:zoom="0.34251948" inkscape:cx="224.64394" inkscape:cy="54.712552" inkscape:window-x="0" inkscape:window-y="1" inkscape:window-maximized="1" inkscape:current-layer="g10"/><g id="g10" inkscape:groupmode="layer" inkscape:label="Logo Re패gion Re패union" transform="matrix(1.25,0,0,-1.25,0,512.00003)"><g id="g4370" transform="matrix(8.8888287,0,0,8.8888287,-4525.3206,-161.90466)"><g id="g4364"><path d="m 510.8735,29.035 c 0,0 48.431,27.403 49.288,30.768 2.571,-12.763 12.991,-19.416 12.991,-19.416 9.113,-0.237 -62.279,-11.352 -62.279,-11.352" style="fill:#ffcd1c;fill-opacity:1;fill-rule:nonzero;stroke:none" id="path94" inkscape:connector-curvature="0"/><path inkscape:connector-curvature="0" id="path98" style="fill:#ffcd1c;fill-opacity:1;stroke:#000000;stroke-width:0.78399998;stroke-linecap:butt;stroke-linejoin:miter;stroke-miterlimit:10;stroke-dasharray:none;stroke-opacity:1" d="m 525.1163,34.4053 c 4.315,0.41 8.631,0.82 12.946,1.23 -9.421,-2.765 -18.842,-5.53 -28.264,-8.295 23.72,4.143 47.42,5.93 70.889,5.345"/><path inkscape:connector-curvature="0" id="path102" style="fill:#ffcd1c;fill-opacity:1;stroke:#000000;stroke-width:1.04499996;stroke-linecap:butt;stroke-linejoin:miter;stroke-miterlimit:10;stroke-dasharray:none;stroke-opacity:1" d="m 570.9629,42.5094 c -5.591,4.142 -9.533,10.452 -10.802,17.294 -15.894,-12.042 -32.939,-22.564 -50.828,-31.376"/><path d="m 511.5234,32.8652 c 17.889,8.846 34.902,19.348 50.828,31.375 -0.505,-0.135 -1.01,-0.27 -1.514,-0.405 1.394,-6.939 5.178,-12.997 10.801,-17.294 0.261,-0.199 1.269,0.594 1.515,0.406 -5.623,4.297 -9.407,10.355 -10.802,17.293 0.007,-0.037 -1.387,-0.309 -1.514,-0.405 -15.926,-12.028 -32.939,-22.529 -50.828,-31.376 0.457,0.226 1.053,0.178 1.514,0.406" style="fill:#000000;fill-opacity:1;fill-rule:nonzero;stroke:none" id="path112" inkscape:connector-curvature="0"/></g><g id="g4335"><path d="m 512.0496,22.5414 -0.196,-1.415 1.149,0 0.197,1.415 -1.15,0 z m -1.071,-2.182 -0.933,0 0,0.767 1.041,0 0.197,1.415 -0.934,0 0,0.766 1.042,0 0.275,2.005 0.766,0 -0.275,-2.005 1.15,0 0.275,2.005 0.766,0 -0.275,-2.005 0.934,0 0,-0.766 -1.042,0 -0.196,-1.415 0.933,0 0,-0.767 -1.041,0 -0.275,-2.004 -0.767,0 0.275,2.004 -1.15,0 -0.275,-2.004 -0.766,0 0.275,2.004 z" style="fill:#000000;fill-opacity:1;fill-rule:nonzero;stroke:none" id="path114" inkscape:connector-curvature="0"/><path d="m 516.7213,21.4431 0.983,0 c 0.145,0 0.289,0.012 0.432,0.035 0.143,0.024 0.271,0.067 0.383,0.129 0.111,0.062 0.201,0.152 0.269,0.269 0.067,0.117 0.101,0.269 0.101,0.456 0,0.187 -0.034,0.339 -0.101,0.456 -0.068,0.117 -0.158,0.207 -0.269,0.269 -0.112,0.062 -0.24,0.106 -0.383,0.129 -0.143,0.023 -0.287,0.035 -0.432,0.035 l -0.983,0 0,-1.778 z m -0.749,2.433 1.942,0 c 0.354,0 0.645,-0.048 0.874,-0.144 0.228,-0.097 0.409,-0.219 0.542,-0.367 0.132,-0.148 0.224,-0.314 0.276,-0.499 0.052,-0.184 0.078,-0.363 0.078,-0.534 0,-0.177 -0.031,-0.347 -0.093,-0.511 -0.063,-0.164 -0.152,-0.312 -0.269,-0.444 -0.117,-0.133 -0.26,-0.245 -0.429,-0.336 -0.169,-0.09 -0.358,-0.147 -0.565,-0.167 l 1.567,-2.519 -0.936,0 -1.404,2.433 -0.834,0 0,-2.433 -0.749,0 0,5.521 z" style="fill:#000000;fill-opacity:1;fill-rule:nonzero;stroke:none" id="path116" inkscape:connector-curvature="0"/><path d="m 522.7102,25.3109 0.998,0 -1.162,-1.123 -0.647,0 0.811,1.123 z m -1.973,-1.434 3.564,0 0,-0.703 -2.815,0 0,-1.645 2.62,0 0,-0.702 -2.62,0 0,-1.77 2.955,0 0,-0.702 -3.704,0 0,5.522 z" style="fill:#000000;fill-opacity:1;fill-rule:nonzero;stroke:none" id="path118" inkscape:connector-curvature="0"/><path d="m 530.2042,21.4431 0,-2.722 c -0.135,-0.083 -0.289,-0.156 -0.46,-0.218 -0.172,-0.062 -0.35,-0.116 -0.534,-0.16 -0.185,-0.044 -0.372,-0.076 -0.562,-0.097 -0.19,-0.021 -0.368,-0.031 -0.534,-0.031 -0.468,0 -0.885,0.078 -1.252,0.233 -0.366,0.157 -0.676,0.367 -0.928,0.632 -0.252,0.265 -0.444,0.573 -0.576,0.924 -0.133,0.351 -0.2,0.722 -0.2,1.111 0,0.411 0.072,0.793 0.215,1.147 0.143,0.353 0.34,0.66 0.593,0.92 0.252,0.26 0.555,0.464 0.908,0.612 0.354,0.149 0.741,0.223 1.162,0.223 0.509,0 0.925,-0.064 1.248,-0.192 0.322,-0.127 0.592,-0.302 0.811,-0.526 l -0.53,-0.569 c -0.229,0.218 -0.471,0.37 -0.726,0.456 -0.255,0.085 -0.522,0.129 -0.803,0.129 -0.317,0 -0.603,-0.059 -0.858,-0.176 -0.255,-0.117 -0.473,-0.274 -0.655,-0.472 -0.182,-0.197 -0.322,-0.43 -0.421,-0.697 -0.099,-0.268 -0.148,-0.553 -0.148,-0.855 0,-0.311 0.055,-0.601 0.164,-0.869 0.109,-0.268 0.26,-0.5 0.452,-0.698 0.192,-0.198 0.418,-0.352 0.678,-0.464 0.261,-0.112 0.544,-0.168 0.85,-0.168 0.266,0 0.516,0.025 0.753,0.074 0.236,0.05 0.438,0.121 0.604,0.215 l 0,1.536 -1.224,0 0,0.702 1.973,0 z" style="fill:#000000;fill-opacity:1;fill-rule:nonzero;stroke:none" id="path120" inkscape:connector-curvature="0"/><path d="m 531.569,18.355 0.749,0 0,5.521 -0.749,0 0,-5.521 z" style="fill:#000000;fill-opacity:1;fill-rule:nonzero;stroke:none" id="path122" inkscape:connector-curvature="0"/><path d="m 536.2712,18.9165 c 0.317,0 0.603,0.059 0.858,0.176 0.254,0.116 0.473,0.274 0.655,0.471 0.182,0.198 0.322,0.43 0.421,0.698 0.099,0.268 0.148,0.552 0.148,0.854 0,0.302 -0.049,0.586 -0.148,0.854 -0.099,0.268 -0.239,0.5 -0.421,0.698 -0.182,0.197 -0.401,0.355 -0.655,0.472 -0.255,0.117 -0.541,0.175 -0.858,0.175 -0.317,0 -0.603,-0.058 -0.858,-0.175 -0.255,-0.117 -0.473,-0.275 -0.655,-0.472 -0.182,-0.198 -0.322,-0.43 -0.421,-0.698 -0.099,-0.268 -0.148,-0.552 -0.148,-0.854 0,-0.302 0.049,-0.586 0.148,-0.854 0.099,-0.268 0.239,-0.5 0.421,-0.698 0.182,-0.197 0.4,-0.355 0.655,-0.471 0.255,-0.117 0.541,-0.176 0.858,-0.176 m 0,-0.702 c -0.421,0 -0.809,0.074 -1.162,0.222 -0.354,0.149 -0.656,0.352 -0.908,0.613 -0.253,0.259 -0.45,0.566 -0.593,0.92 -0.143,0.353 -0.215,0.735 -0.215,1.146 0,0.411 0.072,0.793 0.215,1.147 0.143,0.353 0.34,0.66 0.593,0.92 0.252,0.26 0.554,0.464 0.908,0.612 0.353,0.148 0.741,0.222 1.162,0.222 0.421,0 0.808,-0.074 1.162,-0.222 0.353,-0.148 0.656,-0.352 0.908,-0.612 0.252,-0.26 0.45,-0.567 0.593,-0.92 0.143,-0.354 0.214,-0.736 0.214,-1.147 0,-0.411 -0.071,-0.793 -0.214,-1.146 -0.143,-0.354 -0.341,-0.661 -0.593,-0.92 -0.252,-0.261 -0.555,-0.464 -0.908,-0.613 -0.354,-0.148 -0.741,-0.222 -1.162,-0.222" style="fill:#000000;fill-opacity:1;fill-rule:nonzero;stroke:none" id="path124" inkscape:connector-curvature="0"/><path d="m 540.2246,23.8764 0.983,0 3.041,-4.539 0.015,0 0,4.539 0.749,0 0,-5.521 -0.951,0 -3.073,4.538 -0.015,0 0,-4.538 -0.749,0 0,5.521 z" style="fill:#000000;fill-opacity:1;fill-rule:nonzero;stroke:none" id="path126" inkscape:connector-curvature="0"/><path d="m 547.1805,21.4431 0.983,0 c 0.145,0 0.289,0.012 0.432,0.035 0.143,0.024 0.271,0.067 0.383,0.129 0.111,0.062 0.201,0.152 0.268,0.269 0.068,0.117 0.102,0.269 0.102,0.456 0,0.187 -0.034,0.339 -0.102,0.456 -0.067,0.117 -0.157,0.207 -0.268,0.269 -0.112,0.062 -0.24,0.106 -0.383,0.129 -0.143,0.023 -0.287,0.035 -0.432,0.035 l -0.983,0 0,-1.778 z m -0.749,2.433 1.942,0 c 0.354,0 0.645,-0.048 0.873,-0.144 0.229,-0.097 0.41,-0.219 0.542,-0.367 0.133,-0.148 0.226,-0.314 0.277,-0.499 0.052,-0.184 0.078,-0.363 0.078,-0.534 0,-0.177 -0.031,-0.347 -0.093,-0.511 -0.063,-0.164 -0.153,-0.312 -0.269,-0.444 -0.117,-0.133 -0.26,-0.245 -0.43,-0.336 -0.168,-0.09 -0.357,-0.147 -0.564,-0.167 l 1.567,-2.519 -0.936,0 -1.404,2.433 -0.834,0 0,-2.433 -0.749,0 0,5.521 z" style="fill:#000000;fill-opacity:1;fill-rule:nonzero;stroke:none" id="path128" inkscape:connector-curvature="0"/><path d="m 553.1694,25.3109 0.998,0 -1.162,-1.123 -0.647,0 0.811,1.123 z m -1.973,-1.434 3.564,0 0,-0.703 -2.815,0 0,-1.645 2.62,0 0,-0.702 -2.62,0 0,-1.77 2.955,0 0,-0.702 -3.704,0 0,5.522 z" style="fill:#000000;fill-opacity:1;fill-rule:nonzero;stroke:none" id="path130" inkscape:connector-curvature="0"/><path d="m 556.6085,23.8764 0,-3.384 c 0,-0.172 0.023,-0.35 0.07,-0.535 0.047,-0.185 0.125,-0.354 0.234,-0.511 0.109,-0.156 0.252,-0.283 0.429,-0.382 0.176,-0.098 0.395,-0.148 0.655,-0.148 0.26,0 0.478,0.05 0.655,0.148 0.177,0.099 0.32,0.226 0.429,0.382 0.109,0.157 0.187,0.326 0.234,0.511 0.047,0.185 0.07,0.363 0.07,0.535 l 0,3.384 0.749,0 0,-3.501 c 0,-0.323 -0.055,-0.615 -0.164,-0.878 -0.109,-0.262 -0.26,-0.49 -0.452,-0.682 -0.193,-0.193 -0.419,-0.341 -0.679,-0.445 -0.26,-0.103 -0.54,-0.156 -0.842,-0.156 -0.302,0 -0.582,0.053 -0.842,0.156 -0.26,0.104 -0.486,0.252 -0.679,0.445 -0.192,0.192 -0.343,0.42 -0.452,0.682 -0.109,0.263 -0.164,0.555 -0.164,0.878 l 0,3.501 0.749,0 z" style="fill:#000000;fill-opacity:1;fill-rule:nonzero;stroke:none" id="path132" inkscape:connector-curvature="0"/><path d="m 561.4517,23.8764 0.982,0 3.042,-4.539 0.015,0 0,4.539 0.749,0 0,-5.521 -0.952,0 -3.073,4.538 -0.015,0 0,-4.538 -0.748,0 0,5.521 z" style="fill:#000000;fill-opacity:1;fill-rule:nonzero;stroke:none" id="path134" inkscape:connector-curvature="0"/><path d="m 567.658,18.355 0.749,0 0,5.521 -0.749,0 0,-5.521 z" style="fill:#000000;fill-opacity:1;fill-rule:nonzero;stroke:none" id="path136" inkscape:connector-curvature="0"/><path d="m 572.3608,18.9165 c 0.317,0 0.603,0.059 0.858,0.176 0.254,0.116 0.472,0.274 0.654,0.471 0.183,0.198 0.323,0.43 0.422,0.698 0.098,0.268 0.148,0.552 0.148,0.854 0,0.302 -0.05,0.586 -0.148,0.854 -0.099,0.268 -0.239,0.5 -0.422,0.698 -0.182,0.197 -0.4,0.355 -0.654,0.472 -0.255,0.117 -0.541,0.175 -0.858,0.175 -0.318,0 -0.604,-0.058 -0.858,-0.175 -0.255,-0.117 -0.473,-0.275 -0.655,-0.472 -0.182,-0.198 -0.322,-0.43 -0.422,-0.698 -0.098,-0.268 -0.147,-0.552 -0.147,-0.854 0,-0.302 0.049,-0.586 0.147,-0.854 0.1,-0.268 0.24,-0.5 0.422,-0.698 0.182,-0.197 0.4,-0.355 0.655,-0.471 0.254,-0.117 0.54,-0.176 0.858,-0.176 m 0,-0.702 c -0.421,0 -0.808,0.074 -1.162,0.222 -0.354,0.149 -0.657,0.352 -0.908,0.613 -0.253,0.259 -0.451,0.566 -0.594,0.92 -0.143,0.353 -0.214,0.735 -0.214,1.146 0,0.411 0.071,0.793 0.214,1.147 0.143,0.353 0.341,0.66 0.594,0.92 0.251,0.26 0.554,0.464 0.908,0.612 0.354,0.148 0.741,0.222 1.162,0.222 0.421,0 0.808,-0.074 1.162,-0.222 0.353,-0.148 0.656,-0.352 0.908,-0.612 0.252,-0.26 0.45,-0.567 0.592,-0.92 0.144,-0.354 0.215,-0.736 0.215,-1.147 0,-0.411 -0.071,-0.793 -0.215,-1.146 -0.142,-0.354 -0.34,-0.661 -0.592,-0.92 -0.252,-0.261 -0.555,-0.464 -0.908,-0.613 -0.354,-0.148 -0.741,-0.222 -1.162,-0.222" style="fill:#000000;fill-opacity:1;fill-rule:nonzero;stroke:none" id="path138" inkscape:connector-curvature="0"/><path d="m 576.3145,23.8764 0.982,0 3.042,-4.539 0.015,0 0,4.539 0.749,0 0,-5.521 -0.951,0 -3.073,4.538 -0.015,0 0,-4.538 -0.749,0 0,5.521 z" style="fill:#000000;fill-opacity:1;fill-rule:nonzero;stroke:none" id="path140" inkscape:connector-curvature="0"/></g></g></g></svg>